<svg width="282" height="29" viewBox="0 0 282 29" fill="none" xmlns="http://www.w3.org/2000/svg">
<path d="M42.4792 9.00856C42.3999 8.2161 42.0593 7.60048 41.4576 7.16168C40.8558 6.72288 40.0392 6.50348 39.0076 6.50348C38.3067 6.50348 37.7149 6.60172 37.2321 6.7982C36.7494 6.98813 36.3791 7.25337 36.1212 7.59393C35.8699 7.93449 35.7443 8.32089 35.7443 8.75314C35.7311 9.11334 35.8071 9.4277 35.9724 9.69622C36.1444 9.96474 36.3791 10.1972 36.6767 10.3937C36.9742 10.5836 37.3181 10.7506 37.7082 10.8947C38.0984 11.0323 38.515 11.1501 38.958 11.2484L40.7831 11.6806C41.6692 11.8771 42.4825 12.1391 43.2231 12.4665C43.9637 12.794 44.6052 13.1968 45.1474 13.6749C45.6896 14.153 46.1095 14.7162 46.4071 15.3646C46.7113 16.0129 46.8667 16.7563 46.8733 17.5946C46.8667 18.8258 46.5493 19.8933 45.9211 20.7971C45.2995 21.6944 44.4002 22.3919 43.2231 22.8896C42.0527 23.3808 40.6409 23.6264 38.9878 23.6264C37.3479 23.6264 35.9195 23.3775 34.7028 22.8798C33.4927 22.382 32.5471 21.6452 31.866 20.6694C31.1915 19.687 30.8378 18.4722 30.8047 17.0248H34.9607C35.007 17.6993 35.2021 18.2626 35.5459 18.7145C35.8964 19.1598 36.3626 19.4971 36.9445 19.7263C37.533 19.949 38.1976 20.0603 38.9382 20.0603C39.6656 20.0603 40.2971 19.9555 40.8327 19.746C41.3749 19.5364 41.7948 19.245 42.0924 18.8717C42.3899 18.4984 42.5387 18.0694 42.5387 17.5847C42.5387 17.1328 42.4032 16.753 42.1321 16.4452C41.8675 16.1374 41.4774 15.8754 40.9616 15.6593C40.4525 15.4431 39.8276 15.2467 39.087 15.0698L36.8751 14.5197C35.1624 14.1071 33.8101 13.462 32.8182 12.5844C31.8264 11.7068 31.3337 10.5247 31.3403 9.03803C31.3337 7.81987 31.661 6.75563 32.3223 5.84529C32.9902 4.93495 33.906 4.22436 35.0698 3.71352C36.2336 3.20269 37.5562 2.94727 39.0374 2.94727C40.545 2.94727 41.8609 3.20269 42.9851 3.71352C44.1158 4.22436 44.9953 4.93495 45.6235 5.84529C46.2517 6.75563 46.5757 7.81005 46.5955 9.00856H42.4792Z" fill="#222527"/>
<path d="M49.6828 23.3415V8.25212H53.9082V23.3415H49.6828ZM51.8054 6.30701C51.1772 6.30701 50.6383 6.10071 50.1887 5.68811C49.7456 5.26896 49.5241 4.76794 49.5241 4.18507C49.5241 3.60874 49.7456 3.11427 50.1887 2.70167C50.6383 2.28252 51.1772 2.07295 51.8054 2.07295C52.4336 2.07295 52.9692 2.28252 53.4123 2.70167C53.8619 3.11427 54.0868 3.60874 54.0868 4.18507C54.0868 4.76794 53.8619 5.26896 53.4123 5.68811C52.9692 6.10071 52.4336 6.30701 51.8054 6.30701Z" fill="#222527"/>
<path d="M57.293 23.3415V8.25212H61.3201V10.9144H61.4986C61.816 10.0302 62.345 9.33274 63.0857 8.8219C63.8263 8.31107 64.7124 8.05565 65.7439 8.05565C66.7887 8.05565 67.6781 8.31434 68.4121 8.83173C69.1461 9.34256 69.6354 10.0368 69.8801 10.9144H70.0388C70.3496 10.0499 70.9116 9.35894 71.725 8.84155C72.545 8.31761 73.5137 8.05565 74.6312 8.05565C76.0529 8.05565 77.2068 8.50427 78.0929 9.40151C78.9856 10.2922 79.4319 11.5562 79.4319 13.1935V23.3415H75.2164V14.0187C75.2164 13.1804 74.9916 12.5517 74.5419 12.1325C74.0923 11.7134 73.5302 11.5038 72.8557 11.5038C72.0887 11.5038 71.4902 11.7461 71.0604 12.2308C70.6306 12.7089 70.4157 13.3409 70.4157 14.1268V23.3415H66.3192V13.9303C66.3192 13.1902 66.1043 12.6008 65.6745 12.162C65.2513 11.7232 64.6925 11.5038 63.9982 11.5038C63.5287 11.5038 63.1055 11.6217 62.7286 11.8575C62.3583 12.0867 62.064 12.4109 61.8458 12.83C61.6276 13.2426 61.5185 13.7273 61.5185 14.2839V23.3415H57.293Z" fill="#222527"/>
<path d="M82.7696 29V8.25212H86.9356V10.7867H87.124C87.3092 10.3806 87.577 9.96801 87.9275 9.54886C88.2845 9.12317 88.7474 8.76951 89.3161 8.48789C89.8914 8.19973 90.6056 8.05565 91.4586 8.05565C92.5695 8.05565 93.5944 8.34381 94.5334 8.92014C95.4724 9.48992 96.2229 10.3511 96.785 11.5038C97.3471 12.6499 97.6281 14.0875 97.6281 15.8165C97.6281 17.4996 97.3537 18.9208 96.8048 20.08C96.2626 21.2326 95.522 22.107 94.583 22.7029C93.6506 23.2924 92.6059 23.5871 91.4487 23.5871C90.6287 23.5871 89.9311 23.4528 89.3558 23.1843C88.7871 22.9158 88.3209 22.5785 87.9572 22.1725C87.5935 21.7599 87.3158 21.344 87.124 20.9248H86.9951V29H82.7696ZM86.9058 15.7968C86.9058 16.694 87.0314 17.4767 87.2827 18.1447C87.534 18.8127 87.8977 19.3334 88.3738 19.7067C88.8499 20.0734 89.4285 20.2568 90.1096 20.2568C90.7973 20.2568 91.3792 20.0702 91.8553 19.6969C92.3314 19.317 92.6918 18.7931 92.9365 18.125C93.1878 17.4505 93.3134 16.6744 93.3134 15.7968C93.3134 14.9258 93.1911 14.1595 92.9464 13.498C92.7017 12.8366 92.3414 12.3192 91.8652 11.9459C91.3891 11.5726 90.8039 11.3859 90.1096 11.3859C89.4219 11.3859 88.84 11.566 88.3639 11.9262C87.8944 12.2864 87.534 12.7973 87.2827 13.4587C87.0314 14.1202 86.9058 14.8996 86.9058 15.7968Z" fill="#222527"/>
<path d="M104.671 3.22233V23.3415H100.445V3.22233H104.671Z" fill="#222527"/>
<path d="M114.999 23.6362C113.431 23.6362 112.082 23.3218 110.952 22.6931C109.827 22.0578 108.961 21.1606 108.353 20.0014C107.745 18.8356 107.44 17.457 107.44 15.8656C107.44 14.3134 107.745 12.9512 108.353 11.7789C108.961 10.6066 109.818 9.69295 110.922 9.03803C112.033 8.38311 113.335 8.05565 114.83 8.05565C115.835 8.05565 116.771 8.2161 117.637 8.53701C118.51 8.85137 119.27 9.32619 119.918 9.96146C120.573 10.5967 121.082 11.3957 121.446 12.3585C121.809 13.3147 121.991 14.4346 121.991 15.7182V16.8676H109.127V14.2741H118.014C118.014 13.6716 117.882 13.1378 117.617 12.6728C117.353 12.2078 116.986 11.8444 116.516 11.5824C116.053 11.3139 115.514 11.1796 114.899 11.1796C114.258 11.1796 113.689 11.327 113.193 11.6217C112.704 11.9099 112.32 12.2995 112.043 12.7907C111.765 13.2754 111.623 13.8157 111.616 14.4116V16.8774C111.616 17.624 111.755 18.2691 112.033 18.8127C112.317 19.3563 112.717 19.7754 113.233 20.0702C113.749 20.3649 114.36 20.5122 115.068 20.5122C115.537 20.5122 115.967 20.4467 116.357 20.3158C116.748 20.1848 117.081 19.9883 117.359 19.7263C117.637 19.4644 117.849 19.1434 117.994 18.7636L121.902 19.019C121.704 19.949 121.297 20.7611 120.682 21.4553C120.074 22.143 119.287 22.68 118.321 23.0664C117.363 23.4463 116.255 23.6362 114.999 23.6362Z" fill="#222527"/>
<path d="M144.805 8.25212C144.699 7.00122 144.183 5.98937 143.257 5.21657C142.338 4.44376 141.148 4.05736 139.687 4.05736C138.701 4.05736 137.825 4.23746 137.058 4.59767C136.291 4.95787 135.689 5.44906 135.253 6.07124C134.816 6.69341 134.598 7.40727 134.598 8.21283C134.598 8.73021 134.697 9.19848 134.896 9.61763C135.101 10.0302 135.388 10.4003 135.759 10.7277C136.129 11.0486 136.569 11.3302 137.078 11.5726C137.587 11.8149 138.149 12.0277 138.764 12.2111L140.986 12.8595C141.746 13.0887 142.447 13.354 143.089 13.6552C143.737 13.9565 144.299 14.3167 144.775 14.7358C145.258 15.1484 145.631 15.6331 145.896 16.1898C146.167 16.7464 146.302 17.3883 146.302 18.1152C146.302 19.1762 146.025 20.1258 145.469 20.9641C144.92 21.8024 144.137 22.4639 143.119 22.9485C142.107 23.4266 140.913 23.6657 139.538 23.6657C138.229 23.6657 137.088 23.4463 136.116 23.0075C135.15 22.5687 134.387 21.9596 133.825 21.1803C133.262 20.3943 132.945 19.4906 132.872 18.4689H134.142C134.208 19.3006 134.476 20.021 134.945 20.6301C135.421 21.2326 136.053 21.6976 136.84 22.0251C137.627 22.3526 138.526 22.5163 139.538 22.5163C140.629 22.5163 141.591 22.3329 142.424 21.9662C143.257 21.5928 143.909 21.0755 144.378 20.414C144.848 19.7525 145.082 18.983 145.082 18.1054C145.082 17.3981 144.914 16.7923 144.577 16.288C144.239 15.7837 143.74 15.3482 143.079 14.9814C142.424 14.6147 141.611 14.2872 140.639 13.999L138.268 13.2917C136.681 12.8136 135.468 12.162 134.628 11.3368C133.795 10.5116 133.378 9.48337 133.378 8.25212C133.378 7.21735 133.656 6.30046 134.211 5.50146C134.767 4.6959 135.521 4.06391 136.473 3.60546C137.432 3.14702 138.513 2.9178 139.716 2.9178C140.926 2.9178 141.994 3.15029 142.92 3.61529C143.846 4.07373 144.58 4.70573 145.122 5.51128C145.664 6.31028 145.965 7.2239 146.025 8.25212H144.805Z" fill="#222527"/>
<path d="M154.813 23.6657C153.933 23.6657 153.127 23.4921 152.393 23.145C151.665 22.7979 151.08 22.2903 150.637 21.6223C150.201 20.9543 149.982 20.1422 149.982 19.186C149.982 18.5573 150.095 18.0039 150.32 17.5258C150.544 17.0477 150.892 16.6351 151.361 16.288C151.831 15.9409 152.432 15.656 153.166 15.4333C153.9 15.2041 154.776 15.0273 155.795 14.9028C156.568 14.8111 157.26 14.7227 157.868 14.6376C158.476 14.5459 158.952 14.4051 159.296 14.2152C159.647 14.0252 159.822 13.7371 159.822 13.3507V12.722C159.822 11.6217 159.471 10.7474 158.77 10.099C158.07 9.45063 157.104 9.12644 155.874 9.12644C154.783 9.12644 153.864 9.36549 153.117 9.84358C152.376 10.3151 151.857 10.9242 151.559 11.6708L150.419 11.2484C150.71 10.528 151.13 9.92872 151.678 9.45063C152.234 8.97253 152.869 8.6156 153.583 8.37983C154.304 8.14406 155.058 8.02617 155.844 8.02617C156.526 8.02617 157.174 8.12114 157.789 8.31106C158.41 8.50099 158.962 8.78916 159.445 9.17556C159.934 9.56196 160.321 10.0564 160.605 10.659C160.89 11.2549 161.032 11.9688 161.032 12.8005V23.3415H159.822V20.6203H159.733C159.468 21.1835 159.104 21.6976 158.642 22.1626C158.185 22.6211 157.633 22.9878 156.985 23.2629C156.344 23.5314 155.62 23.6657 154.813 23.6657ZM154.932 22.5556C155.884 22.5556 156.727 22.3264 157.461 21.8679C158.202 21.4029 158.78 20.7677 159.197 19.9621C159.614 19.1565 159.822 18.2429 159.822 17.2213V15.0011C159.67 15.1321 159.448 15.2499 159.157 15.3547C158.873 15.453 158.549 15.5414 158.185 15.62C157.828 15.692 157.451 15.7575 157.055 15.8165C156.664 15.8688 156.284 15.918 155.914 15.9638C154.803 16.0948 153.897 16.2978 153.196 16.5729C152.502 16.8414 151.993 17.1951 151.669 17.6339C151.351 18.0727 151.192 18.6031 151.192 19.2253C151.192 20.2535 151.55 21.0656 152.264 21.6616C152.978 22.2576 153.867 22.5556 154.932 22.5556Z" fill="#222527"/>
<path d="M167.316 3.22233V23.3415H166.105V3.22233H167.316Z" fill="#222527"/>
<path d="M176.362 23.6657C175.482 23.6657 174.675 23.4921 173.941 23.145C173.214 22.7979 172.629 22.2903 172.186 21.6223C171.749 20.9543 171.531 20.1422 171.531 19.186C171.531 18.5573 171.644 18.0039 171.868 17.5258C172.093 17.0477 172.44 16.6351 172.91 16.288C173.379 15.9409 173.981 15.656 174.715 15.4333C175.449 15.2041 176.325 15.0273 177.344 14.9028C178.117 14.8111 178.808 14.7227 179.417 14.6376C180.025 14.5459 180.501 14.4051 180.845 14.2152C181.195 14.0252 181.371 13.7371 181.371 13.3507V12.722C181.371 11.6217 181.02 10.7474 180.319 10.099C179.618 9.45063 178.653 9.12644 177.423 9.12644C176.332 9.12644 175.413 9.36549 174.665 9.84358C173.925 10.3151 173.406 10.9242 173.108 11.6708L171.968 11.2484C172.258 10.528 172.678 9.92872 173.227 9.45063C173.783 8.97253 174.417 8.6156 175.132 8.37983C175.852 8.14406 176.606 8.02617 177.393 8.02617C178.074 8.02617 178.722 8.12114 179.337 8.31106C179.959 8.50099 180.511 8.78916 180.994 9.17556C181.483 9.56196 181.87 10.0564 182.154 10.659C182.439 11.2549 182.581 11.9688 182.581 12.8005V23.3415H181.371V20.6203H181.281C181.017 21.1835 180.653 21.6976 180.19 22.1626C179.734 22.6211 179.182 22.9878 178.534 23.2629C177.892 23.5314 177.168 23.6657 176.362 23.6657ZM176.481 22.5556C177.433 22.5556 178.276 22.3264 179.01 21.8679C179.751 21.4029 180.329 20.7677 180.746 19.9621C181.162 19.1565 181.371 18.2429 181.371 17.2213V15.0011C181.219 15.1321 180.997 15.2499 180.706 15.3547C180.422 15.453 180.098 15.5414 179.734 15.62C179.377 15.692 179 15.7575 178.603 15.8165C178.213 15.8688 177.833 15.918 177.463 15.9638C176.352 16.0948 175.446 16.2978 174.745 16.5729C174.05 16.8414 173.541 17.1951 173.217 17.6339C172.9 18.0727 172.741 18.6031 172.741 19.2253C172.741 20.2535 173.098 21.0656 173.812 21.6616C174.527 22.2576 175.416 22.5556 176.481 22.5556Z" fill="#222527"/>
<path d="M187.654 23.3415V8.25212H188.835V10.5312H188.954C189.245 9.77154 189.747 9.16901 190.461 8.72366C191.175 8.27832 192.035 8.05565 193.04 8.05565C194.144 8.05565 195.034 8.31761 195.708 8.84155C196.389 9.36549 196.879 10.0761 197.176 10.9733H197.285C197.583 10.0892 198.115 9.38186 198.882 8.85137C199.656 8.32089 200.608 8.05565 201.739 8.05565C203.214 8.05565 204.338 8.51736 205.111 9.4408C205.892 10.3577 206.282 11.6151 206.282 13.2131V23.3415H205.072V13.2131C205.072 11.9557 204.768 10.9668 204.159 10.2464C203.551 9.52594 202.658 9.16574 201.481 9.16574C200.225 9.16574 199.259 9.55541 198.585 10.3348C197.91 11.1141 197.573 12.1063 197.573 13.3114V23.3415H196.363V13.1346C196.363 11.9622 196.065 11.0093 195.47 10.2758C194.875 9.53577 193.982 9.16574 192.792 9.16574C191.985 9.16574 191.288 9.34911 190.699 9.71587C190.117 10.0826 189.664 10.5869 189.34 11.2287C189.023 11.8706 188.864 12.6073 188.864 13.4391V23.3415H187.654Z" fill="#222527"/>
<path d="M215.34 23.6657C214.461 23.6657 213.654 23.4921 212.92 23.145C212.193 22.7979 211.607 22.2903 211.164 21.6223C210.728 20.9543 210.51 20.1422 210.51 19.186C210.51 18.5573 210.622 18.0039 210.847 17.5258C211.072 17.0477 211.419 16.6351 211.888 16.288C212.358 15.9409 212.96 15.656 213.694 15.4333C214.428 15.2041 215.304 15.0273 216.322 14.9028C217.096 14.8111 217.787 14.7227 218.395 14.6376C219.004 14.5459 219.48 14.4051 219.824 14.2152C220.174 14.0252 220.349 13.7371 220.349 13.3507V12.722C220.349 11.6217 219.999 10.7474 219.298 10.099C218.597 9.45063 217.632 9.12644 216.402 9.12644C215.311 9.12644 214.391 9.36549 213.644 9.84358C212.904 10.3151 212.384 10.9242 212.087 11.6708L210.946 11.2484C211.237 10.528 211.657 9.92872 212.206 9.45063C212.761 8.97253 213.396 8.6156 214.11 8.37983C214.831 8.14406 215.585 8.02617 216.372 8.02617C217.053 8.02617 217.701 8.12114 218.316 8.31106C218.937 8.50099 219.49 8.78916 219.972 9.17556C220.462 9.56196 220.849 10.0564 221.133 10.659C221.417 11.2549 221.559 11.9688 221.559 12.8005V23.3415H220.349V20.6203H220.26C219.995 21.1835 219.632 21.6976 219.169 22.1626C218.713 22.6211 218.161 22.9878 217.512 23.2629C216.871 23.5314 216.147 23.6657 215.34 23.6657ZM215.459 22.5556C216.411 22.5556 217.255 22.3264 217.989 21.8679C218.729 21.4029 219.308 20.7677 219.724 19.9621C220.141 19.1565 220.349 18.2429 220.349 17.2213V15.0011C220.197 15.1321 219.976 15.2499 219.685 15.3547C219.4 15.453 219.076 15.5414 218.713 15.62C218.356 15.692 217.979 15.7575 217.582 15.8165C217.192 15.8688 216.812 15.918 216.441 15.9638C215.33 16.0948 214.424 16.2978 213.723 16.5729C213.029 16.8414 212.52 17.1951 212.196 17.6339C211.879 18.0727 211.72 18.6031 211.72 19.2253C211.72 20.2535 212.077 21.0656 212.791 21.6616C213.505 22.2576 214.395 22.5556 215.459 22.5556Z" fill="#222527"/>
<path d="M227.843 13.557V23.3415H226.633V8.25212H227.813V10.6393H227.932C228.289 9.85995 228.861 9.2345 229.648 8.76296C230.435 8.29142 231.371 8.05565 232.455 8.05565C233.48 8.05565 234.38 8.27177 235.153 8.70402C235.933 9.13626 236.542 9.75189 236.978 10.5509C237.421 11.3433 237.643 12.2897 237.643 13.39V23.3415H236.433V13.4391C236.433 12.1554 236.046 11.1239 235.272 10.3446C234.505 9.55869 233.49 9.16574 232.227 9.16574C231.381 9.16574 230.627 9.34911 229.966 9.71587C229.304 10.0826 228.785 10.5967 228.408 11.2582C228.031 11.9131 227.843 12.6794 227.843 13.557Z" fill="#222527"/>
<path d="M247.899 23.6559C246.676 23.6559 245.608 23.3218 244.695 22.6538C243.783 21.9858 243.075 21.0656 242.572 19.8933C242.077 18.7145 241.829 17.3621 241.829 15.8361C241.829 14.3232 242.08 12.9806 242.582 11.8083C243.092 10.6295 243.802 9.70604 244.715 9.03803C245.628 8.36346 246.692 8.02617 247.909 8.02617C248.782 8.02617 249.539 8.19318 250.18 8.52719C250.828 8.85465 251.371 9.29017 251.807 9.83375C252.25 10.3773 252.587 10.9733 252.819 11.6217H252.938V3.22233H254.138V23.3415H252.967V20.0505H252.819C252.574 20.6989 252.233 21.2981 251.797 21.8483C251.361 22.3919 250.818 22.8306 250.17 23.1647C249.522 23.4921 248.765 23.6559 247.899 23.6559ZM248.008 22.5458C249.04 22.5458 249.922 22.2543 250.656 21.6714C251.397 21.082 251.962 20.283 252.353 19.2744C252.749 18.2593 252.948 17.1099 252.948 15.8263C252.948 14.5426 252.749 13.3998 252.353 12.3978C251.962 11.3892 251.397 10.5967 250.656 10.0204C249.922 9.43753 249.04 9.14609 248.008 9.14609C246.963 9.14609 246.067 9.4408 245.32 10.0302C244.579 10.6131 244.011 11.4088 243.614 12.4174C243.224 13.426 243.029 14.5623 243.029 15.8263C243.029 17.0903 243.224 18.2298 243.614 19.245C244.011 20.2601 244.579 21.0656 245.32 21.6616C246.067 22.251 246.963 22.5458 248.008 22.5458Z" fill="#222527"/>
<path d="M265.525 23.6559C264.149 23.6559 262.952 23.3186 261.934 22.644C260.916 21.9694 260.129 21.046 259.573 19.8737C259.018 18.7014 258.74 17.3653 258.74 15.8656C258.74 14.3593 259.018 13.0167 259.573 11.8378C260.136 10.659 260.906 9.72897 261.885 9.04785C262.863 8.36673 263.981 8.02617 265.237 8.02617C266.09 8.02617 266.897 8.19645 267.657 8.53701C268.424 8.87102 269.099 9.35566 269.681 9.99094C270.269 10.6262 270.729 11.3925 271.059 12.2897C271.397 13.1869 271.565 14.1955 271.565 15.3154V16.062H259.504V14.9716H270.355C270.355 13.8779 270.13 12.8922 269.681 12.0146C269.231 11.137 268.619 10.4396 267.846 9.92217C267.072 9.40478 266.203 9.14609 265.237 9.14609C264.225 9.14609 263.323 9.4277 262.529 9.99094C261.742 10.5476 261.117 11.3008 260.655 12.2504C260.198 13.2 259.96 14.261 259.94 15.4333V15.9245C259.94 17.182 260.162 18.3117 260.605 19.3137C261.055 20.3092 261.696 21.0984 262.529 21.6813C263.362 22.2576 264.361 22.5458 265.525 22.5458C266.358 22.5458 267.069 22.4082 267.657 22.1332C268.252 21.8515 268.738 21.511 269.115 21.1115C269.492 20.712 269.777 20.3256 269.968 19.9523L271.069 20.3943C270.838 20.8986 270.478 21.4029 269.988 21.9072C269.506 22.405 268.891 22.8208 268.143 23.1548C267.403 23.4888 266.53 23.6559 265.525 23.6559Z" fill="#222527"/>
<path d="M275.731 23.3415V8.25212H276.912V10.6098H277.021C277.351 9.83703 277.91 9.21813 278.697 8.75314C279.484 8.28159 280.38 8.04582 281.385 8.04582C281.491 8.04582 281.597 8.04582 281.702 8.04582C281.808 8.04582 281.907 8.0491 282 8.05565V9.26397C281.921 9.25742 281.825 9.2476 281.712 9.2345C281.607 9.21485 281.474 9.20503 281.316 9.20503C280.469 9.20503 279.715 9.38513 279.054 9.74534C278.399 10.1055 277.884 10.6033 277.507 11.2386C277.13 11.8673 276.941 12.5877 276.941 13.3998V23.3415H275.731Z" fill="#222527"/>
<path d="M15.9945 22.3869C16.0225 19.6626 15.298 17.4472 14.3765 17.4386C13.455 17.4301 12.6852 19.6316 12.6574 22.3558C12.6294 25.0801 13.3538 27.2955 14.2753 27.3041C15.1969 27.3127 15.9666 25.1112 15.9945 22.3869Z" fill="#222527"/>
<path d="M10.6499 21.7682C12.2184 19.4908 12.8654 17.2537 12.095 16.7714C11.3247 16.2892 9.42865 17.7444 7.86022 20.0217C6.29173 22.2991 5.64474 24.5362 6.41507 25.0185C7.18547 25.5007 9.08141 24.0455 10.6499 21.7682Z" fill="#222527"/>
<path d="M6.49826 18.5008C9.10924 17.3936 10.9222 15.8452 10.5476 15.0423C10.1731 14.2395 7.75288 14.4864 5.1419 15.5936C2.53094 16.7009 0.717983 18.2493 1.09253 19.0521C1.46708 19.8549 3.8873 19.608 6.49826 18.5008Z" fill="#222527"/>
<path d="M10.2342 12.791C10.3744 11.9226 8.1985 10.8827 5.37421 10.4682C2.54983 10.0537 0.146605 10.4218 0.00641139 11.2902C-0.133782 12.1586 2.04215 13.1985 4.86649 13.613C7.6908 14.0274 10.0941 13.6594 10.2342 12.791Z" fill="#222527"/>
<path d="M11.2483 10.7223C11.8586 10.0639 10.6175 8.06766 8.47632 6.26348C6.33513 4.4593 4.10459 3.53043 3.49429 4.18879C2.88399 4.84716 4.12504 6.84344 6.26626 8.64763C8.40746 10.4518 10.638 11.3807 11.2483 10.7223Z" fill="#222527"/>
<path d="M13.2677 9.51325C14.1545 9.27402 14.2426 6.95493 13.4645 4.33346C12.6865 1.71199 11.3369 -0.219202 10.4501 0.0200323C9.56333 0.259267 9.47523 2.57833 10.2533 5.19983C11.0313 7.82125 12.381 9.75248 13.2677 9.51325Z" fill="#222527"/>
<path d="M18.7513 5.28139C19.5835 2.67504 19.5434 0.354774 18.6617 0.0989184C17.7801 -0.156944 16.3908 1.74849 15.5586 4.35483C14.7265 6.96116 14.7666 9.28144 15.6483 9.53729C16.5299 9.79314 17.9192 7.88774 18.7513 5.28139Z" fill="#222527"/>
<path d="M22.6696 8.8031C24.8474 7.03916 26.1292 5.06638 25.5324 4.3968C24.9358 3.72719 22.6866 4.61434 20.5088 6.37822C18.331 8.14216 17.0493 10.1149 17.646 10.7845C18.2427 11.4541 20.4919 10.567 22.6696 8.8031Z" fill="#222527"/>
<path d="M23.9652 13.7868C26.7976 13.4255 28.9946 12.4267 28.8723 11.5558C28.7502 10.6849 26.355 10.2718 23.5226 10.6331C20.6903 10.9943 18.4932 11.9932 18.6155 12.8641C18.7377 13.7349 21.1328 14.1481 23.9652 13.7868Z" fill="#222527"/>
<path d="M27.619 19.301C28.01 18.5054 26.2295 16.9232 23.6419 15.7671C21.0544 14.611 18.6397 14.3187 18.2487 15.1143C17.8576 15.9099 19.6381 17.4921 22.2257 18.6482C24.8132 19.8043 27.2279 20.0966 27.619 19.301Z" fill="#222527"/>
<path d="M22.1762 25.1712C22.9563 24.7036 22.3557 22.4547 20.8347 20.1483C19.3136 17.8419 17.4481 16.3514 16.6679 16.819C15.8877 17.2867 16.4883 19.5356 18.0094 21.842C19.5304 24.1484 21.396 25.6389 22.1762 25.1712Z" fill="#222527"/>
</svg>
